<svg width="20" height="24" viewBox="0 0 20 24" fill="none" xmlns="http://www.w3.org/2000/svg">
<g id="moon-[#1250]">
<path id="moon-[#1250]_2" fill-rule="evenodd" clip-rule="evenodd" d="M14.5759 12.1355C14.5603 12.1375 14.5437 12.1406 14.5272 12.1406C13.8037 8.40999 9.42692 6.76023 6.5955 9.28857C5.30655 10.4401 4.49144 12.4996 5.1057 14.6069C3.96007 13.6593 2.35423 14.3189 2.01786 15.6846C2.01103 15.7109 2.00518 15.7402 2.0003 15.7676C1.71073 17.19 2.82711 18.2624 4.01369 18.2624C15.0273 18.2624 15.1375 18.4919 16.3085 17.6589C18.9157 15.8043 16.9335 11.7733 14.5759 12.1355ZM12.9438 6.88599C14.4238 7.70679 15.4281 8.92218 16.0121 10.3213C16.014 10.3264 16.017 10.3304 16.0209 10.3345C16.0248 10.3375 16.0296 10.3407 16.0345 10.3428C16.5542 10.5061 17.0349 10.7597 17.4658 11.0803C17.8695 7.62769 16.1447 4.46729 13.3835 2.93628C13.4878 4.21973 13.3864 5.45339 12.9438 6.88599ZM19.4821 15.6267C19.3729 16.9599 18.745 18.1275 17.8237 18.9524C16.9013 19.7773 15.6855 20.2917 14.4004 20.2917H4.09559C2.15728 20.2917 0.294046 18.8328 0.0337199 16.7285C-0.0988807 15.6642 0.167296 14.6709 0.696723 13.8826C0.337922 12.9563 0.10782 12.0371 0.0210444 10.9688C1.04577 11.5369 2.02468 11.7995 3.04551 11.8857C3.32241 10.2827 4.10729 8.86455 5.22952 7.82764C6.74858 6.42548 8.85166 5.72221 11.1146 6.20312C11.7659 4.04611 11.5076 1.84654 10.5618 0C16.6224 0.53469 20.891 6.77329 19.0492 13.0576C19.3924 13.8236 19.5572 14.7055 19.4821 15.6267ZM13.6477 21.9709C13.1095 21.9709 12.6727 22.4253 12.6727 22.9853C12.6727 23.5464 13.1095 24 13.6477 24C14.1869 24 14.6227 23.5464 14.6227 22.9853C14.6227 22.4253 14.1869 21.9709 13.6477 21.9709ZM9.74769 21.9709C9.20949 21.9709 8.77268 22.4253 8.77268 22.9853C8.77268 23.5464 9.20949 24 9.74769 24C10.2869 24 10.7227 23.5464 10.7227 22.9853C10.7227 22.4253 10.2869 21.9709 9.74769 21.9709ZM6.82267 22.9853C6.82267 23.5464 6.38685 24 5.84767 24C5.30947 24 4.87266 23.5464 4.87266 22.9853C4.87266 22.4253 5.30947 21.9709 5.84767 21.9709C6.38685 21.9709 6.82267 22.4253 6.82267 22.9853Z" fill="white"/>
</g>
</svg>
