<svg width="57" height="55" viewBox="0 0 57 55" fill="none" xmlns="http://www.w3.org/2000/svg">
<ellipse cx="28.497" cy="27.5" rx="27.6657" ry="27.5" fill="#171615"/>
<path fill-rule="evenodd" clip-rule="evenodd" d="M20.1633 19.3101C19.761 19.7236 19.761 20.394 20.1633 20.8075L21.1935 21.8664C21.5958 22.2798 22.2481 22.2798 22.6504 21.8664C23.0527 21.4528 23.0527 20.7824 22.6504 20.3689L21.6202 19.3101C21.2179 18.8966 20.5656 18.8966 20.1633 19.3101ZM36.6461 19.3101C37.0484 18.8966 37.7007 18.8966 38.103 19.3101C38.5053 19.7236 38.5053 20.394 38.103 20.8075L37.0728 21.8664C36.6705 22.2798 36.0182 22.2798 35.616 21.8664C35.2137 21.4528 35.2137 20.7824 35.616 20.3689L36.6461 19.3101ZM37.0728 30.9572L38.103 32.016C38.5053 32.4295 38.5053 33.0999 38.103 33.5134C37.7007 33.9269 37.0484 33.9269 36.6461 33.5134L35.616 32.4546C35.2137 32.0411 35.2137 31.3707 35.616 30.9572C36.0182 30.5437 36.6705 30.5437 37.0728 30.9572ZM20.1633 33.5134C19.761 33.0999 19.761 32.4295 20.1633 32.016L21.1935 30.9572C21.5958 30.5437 22.2481 30.5437 22.6504 30.9572C23.0527 31.3707 23.0527 32.0411 22.6504 32.4546L21.6202 33.5134C21.2179 33.9269 20.5656 33.9269 20.1633 33.5134ZM37.8012 27.4706C38.3701 27.4707 38.8313 26.9967 38.8313 26.4119C38.8314 25.8271 38.3702 25.353 37.8013 25.353L37.3746 25.3529C36.8056 25.3529 36.3444 25.8269 36.3443 26.4117C36.3443 26.9964 36.8055 27.4706 37.3745 27.4706H37.8012ZM18.8313 26.6312C18.8314 27.2159 19.2926 27.69 19.8616 27.6899H20.2883C20.8572 27.6899 21.3184 27.2157 21.3184 26.6309C21.3183 26.0462 20.8571 25.5722 20.2881 25.5722L19.8614 25.5722C19.2925 25.5723 18.8313 26.0464 18.8313 26.6312ZM32.6734 31.62C34.27 30.4714 35.3141 28.5669 35.3141 26.4118C35.3141 22.9031 32.5468 20.0588 29.1331 20.0588C25.7194 20.0588 22.952 22.9031 22.952 26.4118C22.952 28.5669 23.9961 30.4714 25.5927 31.62C25.23 32.0762 25.0124 32.659 25.0124 33.2941C25.0124 34.5752 25.8978 35.6438 27.074 35.8884C27.0731 35.9059 27.0727 35.9235 27.0727 35.9412C27.0727 36.526 27.5339 37 28.1029 37H30.1632C30.7322 37 31.1934 36.526 31.1934 35.9412C31.1934 35.9235 31.193 35.9059 31.1922 35.8884C32.3683 35.6438 33.2538 34.5752 33.2538 33.2941C33.2538 32.659 33.0362 32.0762 32.6734 31.62ZM29.1331 30.6471C31.4088 30.6471 33.2538 28.7508 33.2538 26.4118C33.2538 24.0727 31.4088 22.1765 29.1331 22.1765C26.8573 22.1765 25.0124 24.0727 25.0124 26.4118C25.0124 28.7508 26.8573 30.6471 29.1331 30.6471ZM27.5878 32.7647C27.3034 32.7647 27.0727 33.0018 27.0727 33.2941C27.0727 33.5865 27.3034 33.8235 27.5878 33.8235H30.6783C30.9628 33.8235 31.1934 33.5865 31.1934 33.2941C31.1934 33.0018 30.9628 32.7647 30.6783 32.7647H27.5878Z" fill="white"/>
</svg>
