<svg width="40" height="40" viewBox="0 0 40 40" fill="none" xmlns="http://www.w3.org/2000/svg">
<g id="Frame 73">
<g id="Ellipse 13" filter="url(#filter0_b_157_1634)">
<path d="M40 20C40 31.0457 31.0457 40 20 40C8.9543 40 0 31.0457 0 20C0 8.9543 8.9543 0 20 0C31.0457 0 40 8.9543 40 20Z" fill="white"/>
</g>
<path id="Vector" d="M20.8495 22.8935L19.5362 21.5912C18.9326 20.9926 18.6308 20.6933 18.2833 20.5811C17.9776 20.4823 17.6486 20.4823 17.3429 20.5811C16.9955 20.6933 16.6937 20.9926 16.09 21.5912L13.0321 24.6711M20.8495 22.8935L21.1105 22.6346C21.7268 22.0235 22.0349 21.7179 22.3885 21.6064C22.6995 21.5083 23.0336 21.5121 23.3422 21.6173C23.693 21.737 23.9941 22.0495 24.5962 22.6747L25.2353 23.3236M20.8495 22.8935L23.8741 25.9716M13.0321 24.6711C13.0555 24.8702 13.0962 25.0266 13.1667 25.1649C13.3133 25.4527 13.5473 25.6867 13.8351 25.8333C14.1622 26 14.5905 26 15.4471 26H22.7882C23.2633 26 23.6067 26 23.8741 25.9716M13.0321 24.6711C13 24.3992 13 24.0474 13 23.5529V16.2118C13 15.3552 13 14.9269 13.1667 14.5998C13.3133 14.312 13.5473 14.078 13.8351 13.9314C14.1622 13.7647 14.5905 13.7647 15.4471 13.7647H18.3529M23.8741 25.9716C24.0888 25.9487 24.2546 25.9075 24.4002 25.8333C24.688 25.6867 24.922 25.4527 25.0686 25.1649C25.2353 24.8378 25.2353 24.4095 25.2353 23.5529V20.6471M23.7059 17.5882V15.2941M23.7059 15.2941V13M23.7059 15.2941H26M23.7059 15.2941H21.4118" stroke="black" stroke-width="1.5" stroke-linecap="round" stroke-linejoin="round"/>
</g>
<defs>
<filter id="filter0_b_157_1634" x="-40" y="-40" width="120" height="120" filterUnits="userSpaceOnUse" color-interpolation-filters="sRGB">
<feFlood flood-opacity="0" result="BackgroundImageFix"/>
<feGaussianBlur in="BackgroundImageFix" stdDeviation="20"/>
<feComposite in2="SourceAlpha" operator="in" result="effect1_backgroundBlur_157_1634"/>
<feBlend mode="normal" in="SourceGraphic" in2="effect1_backgroundBlur_157_1634" result="shape"/>
</filter>
</defs>
</svg>
