<svg width="36" height="36" viewBox="0 0 36 36" fill="#FF3B30" xmlns="http://www.w3.org/2000/svg">
<g id="Logo">
<rect width="36" height="36" rx="18" fill="#393939" fill-opacity="0.5"/>
<path id="Vector" d="M19.4709 12.6548L19.4711 12.6546C20.9899 11.0521 23.4079 10.8258 25.0115 12.2229C26.8909 13.8632 26.9929 16.8207 25.3046 18.6022L25.3045 18.6024L18.8421 25.4257C18.6219 25.6581 18.2753 25.6581 18.0551 25.4257L11.5929 18.6026C11.5928 18.6025 11.5928 18.6025 11.5927 18.6024C11.5927 18.6024 11.5927 18.6024 11.5927 18.6024C9.90758 16.8207 10.0096 13.8633 11.889 12.2229C13.4927 10.8256 15.9139 11.0524 17.4291 12.6542L17.4297 12.6548L18.0876 13.3481L18.4503 13.7302L18.8129 13.3481L19.4709 12.6548Z" stroke="#FF3B30"/>
</g>
</svg>
