<svg width="56" height="55" viewBox="0 0 56 55" fill="none" xmlns="http://www.w3.org/2000/svg">
<ellipse cx="28.3283" cy="27.5" rx="27.6657" ry="27.5" fill="white"/>
<path d="M25.5 23.6667C26 23.6667 26.3333 23.3333 26.3333 22.8333C26.3333 22.3333 26 22 25.5 22C21.3333 22 18 25.3333 18 29.5C18 31.8333 19.8333 33.6667 22.1667 33.6667C24.5 33.6667 26.3333 31.8333 26.3333 29.5C26.3333 27.1667 24.5 25.3333 22.1667 25.3333C21.9167 25.3333 21.5833 25.3333 21.3333 25.4167C22.4167 24.3333 23.8333 23.6667 25.5 23.6667Z" fill="black"/>
<path d="M33.8333 25.3333C33.5833 25.3333 33.25 25.3333 33 25.4167C34.0833 24.3333 35.5 23.6667 37.1667 23.6667C37.6667 23.6667 38 23.3333 38 22.8333C38 22.3333 37.6667 22 37.1667 22C33 22 29.6667 25.3333 29.6667 29.5C29.6667 31.8333 31.5 33.6667 33.8333 33.6667C36.1667 33.6667 38 31.8333 38 29.5C38 27.1667 36.1667 25.3333 33.8333 25.3333Z" fill="black"/>
</svg>
