<svg width="56" height="55" viewBox="0 0 56 55" fill="none" xmlns="http://www.w3.org/2000/svg">
<ellipse cx="28.1597" cy="27.5" rx="27.6657" ry="27.5" fill="white"/>
<path fill-rule="evenodd" clip-rule="evenodd" d="M32.2915 28C31.9491 28 31.3214 27.9352 31.3214 27.8344V37H33.2616V27.8344C33.2616 27.9352 32.634 28 32.2915 28ZM33.2616 20.9656V19H31.3214V20.9656C30.3513 21.3373 29.3813 22.3264 29.3813 23.5C29.3813 24.9913 30.6841 26.2 32.2915 26.2C33.899 26.2 35.2018 24.9913 35.2018 23.5C35.2018 22.3264 34.2317 21.3373 33.2616 20.9656ZM25.5009 28.1656V19H23.5607V28.1656C23.8653 28.0648 24.1883 28 24.5308 28C24.8732 28 25.5009 28.0648 25.5009 28.1656ZM27.4411 32.5C27.4411 33.6736 26.471 34.6627 25.5009 35.0344V37H23.5607V35.0344C22.5906 34.6627 21.6205 33.6736 21.6205 32.5C21.6205 31.0087 22.9233 29.8 24.5308 29.8C26.1382 29.8 27.4411 31.0087 27.4411 32.5Z" fill="black"/>
</svg>
