<svg width="24" height="24" viewBox="0 0 24 24" fill="none" xmlns="http://www.w3.org/2000/svg">
<path id="Vector" d="M11.9806 0C18.8419 0 24 5.32742 24 12C24 19.1177 18.2661 24 11.9806 24C5.49677 24 0 18.7016 0 12C0 5.56936 5.06613 0 11.9806 0ZM12.0194 2.1629C6.3 2.1629 2.1629 6.9 2.1629 12C2.1629 17.3129 6.57581 21.8129 12.0194 21.8129C17.0129 21.8129 21.8323 17.8887 21.8323 12C21.8371 6.49355 17.4677 2.1629 12.0194 2.1629ZM16.9065 8.56936C17.2839 8.56936 17.5694 8.86452 17.5694 9.23226V18.0629C17.5694 18.4355 17.2742 18.7258 16.9065 18.7258H10.3694C9.99677 18.7258 9.70645 18.4355 9.70645 18.0629V15.45H7.09355C6.71613 15.45 6.43064 15.1597 6.43064 14.7871V5.95645C6.43064 5.55968 6.75 5.34194 7.03065 5.29355H13.6306C14.0032 5.29355 14.2935 5.58387 14.2935 5.95645V8.56936H16.9065ZM7.7371 14.1435H9.70645V9.2371C9.70645 8.87903 9.9871 8.62742 10.2871 8.57419H12.9871V6.62419H7.7371V14.1435ZM16.2629 9.88064H11.0129V17.4H16.2629V9.88064Z" fill="white"/>
</svg>
